<?xml version="1.0" encoding="utf-8"?>
<!-- Generator: Adobe Illustrator 22.0.1, SVG Export Plug-In . SVG Version: 6.00 Build 0)  -->
<svg version="1.1" id="Layer_1" xmlns="http://www.w3.org/2000/svg" xmlns:xlink="http://www.w3.org/1999/xlink" x="0px" y="0px"
	 viewBox="0 0 181.8 183.6" style="enable-background:new 0 0 181.8 183.6;" xml:space="preserve">
<style type="text/css">
	.st0{fill:#29394C;}
	.st1{fill:#44A9F8;}
</style>
<title>SoftUni_Logo</title>
<g id="Layer_2_1_">
	<g id="Layer_1-2">
		<path class="st0" d="M46.7,157.9c-0.2,0.3-0.4,0.5-0.6,0.7s-0.5,0.2-0.8,0.2s-0.7-0.1-1-0.3l-1.2-0.6c-0.5-0.3-1-0.5-1.5-0.6
			c-0.6-0.2-1.3-0.3-1.9-0.3c-1.2,0-2.2,0.3-2.8,0.8s-0.9,1.3-0.9,2.1c0,0.5,0.2,1,0.6,1.4s0.9,0.7,1.4,1c0.7,0.3,1.3,0.5,2,0.8
			c0.8,0.2,1.5,0.5,2.3,0.8s1.6,0.6,2.3,1s1.4,0.9,2,1.4c0.6,0.6,1.1,1.3,1.4,2.1c0.4,1,0.6,2,0.6,3c0,1.3-0.2,2.5-0.7,3.7
			c-0.4,1.1-1.1,2.1-2,3s-2,1.6-3.2,2c-1.4,0.5-2.8,0.8-4.3,0.7c-0.9,0-1.8-0.1-2.7-0.3s-1.8-0.4-2.7-0.8c-0.8-0.3-1.6-0.7-2.4-1.2
			c-0.7-0.4-1.4-0.9-2-1.5l2-3.1c0.2-0.2,0.4-0.4,0.6-0.6c0.3-0.1,0.5-0.2,0.8-0.2c0.4,0,0.8,0.1,1.2,0.4c0.4,0.2,0.8,0.5,1.3,0.8
			s1.1,0.6,1.7,0.8c0.7,0.3,1.5,0.4,2.3,0.4c1.2,0,2.1-0.3,2.8-0.8s1-1.4,1-2.5c0-0.6-0.2-1.2-0.6-1.6s-0.9-0.8-1.4-1
			c-0.7-0.3-1.3-0.5-2-0.7c-0.8-0.2-1.5-0.4-2.3-0.7s-1.6-0.6-2.3-0.9c-0.8-0.4-1.4-0.9-2-1.5c-0.6-0.7-1.1-1.4-1.4-2.3
			c-0.4-1.1-0.6-2.2-0.6-3.3s0.2-2.1,0.6-3.1s1.1-1.9,1.9-2.7c0.9-0.8,1.9-1.5,3.1-1.9c1.3-0.5,2.7-0.7,4.2-0.7
			c0.9,0,1.7,0.1,2.5,0.2s1.6,0.3,2.3,0.6s1.4,0.6,2.1,1c0.6,0.4,1.2,0.8,1.7,1.3L46.7,157.9z"/>
		<path class="st0" d="M61.3,160c1.4,0,2.8,0.2,4.2,0.7c1.2,0.5,2.3,1.2,3.2,2.1c0.9,0.9,1.6,2,2.1,3.3c0.5,1.4,0.8,2.8,0.8,4.3
			s-0.2,3-0.8,4.4c-0.5,1.2-1.2,2.4-2.1,3.3s-2,1.6-3.2,2.1c-1.3,0.5-2.8,0.7-4.2,0.7s-2.9-0.2-4.2-0.7c-1.2-0.5-2.3-1.2-3.3-2.1
			c-0.9-0.9-1.7-2.1-2.1-3.3c-0.5-1.4-0.8-2.9-0.8-4.4s0.2-2.9,0.8-4.3c0.5-1.2,1.2-2.3,2.1-3.3c0.9-0.9,2.1-1.6,3.3-2.1
			C58.4,160.2,59.8,160,61.3,160z M61.3,176.3c1.4,0,2.4-0.5,3.1-1.5c0.7-1,1-2.5,1-4.5s-0.3-3.5-1-4.5s-1.7-1.5-3.1-1.5
			s-2.5,0.5-3.1,1.5c-0.7,1-1,2.5-1,4.5s0.3,3.5,1,4.5C58.8,175.8,59.8,176.3,61.3,176.3L61.3,176.3z"/>
		<path class="st0" d="M94.8,164.4v10c0,0.4,0.1,0.8,0.3,1.2c0.2,0.3,0.6,0.5,1,0.5c0.2,0,0.4,0,0.6-0.1c0.1,0,0.3-0.1,0.4-0.2
			s0.2-0.1,0.3-0.2c0.1,0,0.2-0.1,0.3-0.1c0.2,0,0.3,0,0.4,0.1s0.2,0.2,0.3,0.4l1.8,2.9c-0.8,0.6-1.7,1-2.6,1.3c-1,0.3-2,0.4-3,0.4
			c-0.9,0-1.7-0.1-2.5-0.4c-1.4-0.5-2.5-1.6-3-3c-0.3-0.8-0.4-1.6-0.4-2.4v-10.5h-7.2v16h-6v-16.1l-1.3-0.3
			c-0.4-0.1-0.8-0.2-1.1-0.5c-0.3-0.2-0.4-0.6-0.4-1V160h2.8v-1.1c0-1.1,0.2-2.1,0.6-3.1c0.4-0.9,0.9-1.7,1.6-2.4s1.6-1.2,2.5-1.5
			c1.1-0.4,2.2-0.6,3.4-0.6c0.5,0,0.9,0,1.4,0.1c0.4,0.1,0.9,0.2,1.3,0.3l-0.1,2.9c0,0.4-0.2,0.7-0.5,0.8c-0.1,0.1-0.3,0.1-0.5,0.2
			c-0.2,0-0.3,0.1-0.5,0.1c-0.5,0-1,0-1.4,0.2c-0.4,0.1-0.8,0.3-1,0.6c-0.3,0.3-0.5,0.7-0.6,1.1c-0.2,0.5-0.2,1.1-0.2,1.6v1h7.7
			l1.2-5c0.2-0.6,0.6-0.9,1.3-0.9h3.2v5.9h5v4.1L94.8,164.4z"/>
		<path class="st0" d="M114.7,175.3c0.8,0,1.6-0.1,2.4-0.4c0.7-0.3,1.3-0.7,1.8-1.3s0.9-1.3,1.1-2c0.3-0.9,0.4-1.8,0.4-2.7v-16.8
			h6.6v16.8c0,1.6-0.3,3.3-0.8,4.8c-0.5,1.4-1.4,2.7-2.4,3.8c-1.1,1.1-2.4,1.9-3.8,2.5c-3.3,1.2-6.9,1.2-10.2,0
			c-1.4-0.5-2.7-1.4-3.8-2.5c-1.1-1.1-1.9-2.3-2.4-3.8c-0.6-1.5-0.9-3.2-0.8-4.8v-16.8h6.6v16.8c0,0.9,0.1,1.8,0.4,2.7
			c0.2,0.7,0.6,1.4,1.1,2s1.1,1,1.8,1.3C113.1,175.1,113.9,175.3,114.7,175.3z"/>
		<path class="st0" d="M136.2,162.5c0.4-0.4,0.8-0.7,1.2-1s0.9-0.6,1.3-0.8c0.5-0.2,1-0.4,1.5-0.5c0.6-0.1,1.2-0.2,1.8-0.2
			c1,0,2,0.2,2.9,0.6c0.8,0.4,1.6,0.9,2.2,1.6s1.1,1.5,1.3,2.4c0.3,1,0.5,2,0.4,3.1v12.8h-6v-12.8c0-1-0.2-1.8-0.7-2.3
			c-0.5-0.6-1.1-0.8-2-0.8c-0.6,0-1.3,0.1-1.9,0.4s-1.2,0.7-1.7,1.1v14.4h-6.1v-20.2h3.7c0.7-0.1,1.3,0.4,1.5,1L136.2,162.5z"/>
		<path class="st0" d="M159.6,154.7c0,0.5-0.1,0.9-0.3,1.4c-0.2,0.4-0.5,0.8-0.8,1.1s-0.7,0.6-1.2,0.8s-0.9,0.3-1.4,0.3
			s-1-0.1-1.4-0.3s-0.8-0.4-1.1-0.8c-0.3-0.3-0.6-0.7-0.8-1.1c-0.2-0.4-0.3-0.9-0.3-1.4s0.1-1,0.3-1.4s0.4-0.8,0.8-1.1
			c0.3-0.3,0.7-0.6,1.1-0.8c0.4-0.2,0.9-0.3,1.4-0.3s1,0.1,1.4,0.3s0.8,0.4,1.2,0.8c0.3,0.3,0.6,0.7,0.8,1.1
			C159.6,153.8,159.7,154.3,159.6,154.7z M159,160.3v20.2h-6v-20.2H159z"/>
		<path class="st1" d="M90.9,1l-90,47.9L36,66.8v43.5l54.9,27.2l54.9-27.2V66.8l35.1-17.9L90.9,1z M128.8,99.8l-37.9,18.8l0,0l0,0
			L52.8,99.8V75.4l38.1,19.3l37.7-19.3L128.8,99.8z M90.9,75.8L90.9,75.8L38.2,48.9L90.9,20l52.7,28.9L90.9,75.8z"/>
	</g>
</g>
</svg>
